<svg width="154" height="64" viewBox="0 0 154 64" fill="none" xmlns="http://www.w3.org/2000/svg">
<path d="M0.544034 59V0.81818H40.2599V12.2386H14.6065V24.1705H37.7315V35.6193H14.6065V59H0.544034ZM52.6605 59H37.5469L57.1776 0.81818H75.8991L95.5298 59H80.4162L66.7514 15.4773H66.2969L52.6605 59ZM50.6435 36.1023H82.2344V46.7841H50.6435V36.1023ZM121.304 38.0909H132.668L137.497 44.2557L143.832 51.5284L153.577 63.5455H140.849L134.031 55.392L129.997 49.5966L121.304 38.0909ZM153.974 29.9091C153.974 36.3106 152.743 41.7367 150.281 46.1875C147.819 50.6383 144.486 54.0189 140.281 56.3295C136.096 58.6402 131.399 59.7955 126.19 59.7955C120.963 59.7955 116.257 58.6307 112.071 56.3011C107.885 53.9716 104.562 50.5909 102.099 46.1591C99.6562 41.7083 98.4347 36.2917 98.4347 29.9091C98.4347 23.5076 99.6562 18.0814 102.099 13.6307C104.562 9.17992 107.885 5.79924 112.071 3.48864C116.257 1.17803 120.963 0.0227251 126.19 0.0227251C131.399 0.0227251 136.096 1.17803 140.281 3.48864C144.486 5.79924 147.819 9.17992 150.281 13.6307C152.743 18.0814 153.974 23.5076 153.974 29.9091ZM139.599 29.9091C139.599 26.1212 139.06 22.9205 137.98 20.3068C136.92 17.6932 135.385 15.714 133.378 14.3693C131.389 13.0246 128.993 12.3523 126.19 12.3523C123.406 12.3523 121.01 13.0246 119.003 14.3693C116.995 15.714 115.452 17.6932 114.372 20.3068C113.312 22.9205 112.781 26.1212 112.781 29.9091C112.781 33.697 113.312 36.8977 114.372 39.5114C115.452 42.125 116.995 44.1042 119.003 45.4489C121.01 46.7936 123.406 47.4659 126.19 47.4659C128.993 47.4659 131.389 46.7936 133.378 45.4489C135.385 44.1042 136.92 42.125 137.98 39.5114C139.06 36.8977 139.599 33.697 139.599 29.9091Z" fill="white"/>
</svg>
